<svg width="28" height="28" viewBox="0 0 28 28" fill="none" xmlns="http://www.w3.org/2000/svg">
<path d="M9.33398 14L9.33398 9.33333C9.33398 6.756 11.4233 4.66667 14.0007 4.66667V4.66667C16.578 4.66667 18.6673 6.756 18.6673 9.33333L18.6673 14" stroke="#808080" stroke-width="2" stroke-linecap="round"/>
<path d="M5.35756 14.2509C5.43234 13.3535 5.48236 12.777 5.57354 12.354C5.65868 11.9589 5.75366 11.8342 5.82982 11.7641C5.90599 11.694 6.03816 11.6097 6.43891 11.5577C6.86809 11.502 7.44674 11.5 8.3472 11.5H19.6528C20.5533 11.5 21.1319 11.502 21.5611 11.5577C21.9618 11.6097 22.094 11.694 22.1702 11.7641C22.2463 11.8342 22.3413 11.9589 22.4265 12.354C22.5176 12.777 22.5677 13.3535 22.6424 14.2509L23.3229 22.417C23.3676 22.9531 23.3902 23.2516 23.3789 23.46C23.3787 23.4627 23.3786 23.4654 23.3784 23.468C23.3758 23.4684 23.3732 23.4687 23.3705 23.4691C23.1637 23.4977 22.8644 23.5 22.3264 23.5H5.6736C5.13561 23.5 4.83626 23.4977 4.62947 23.4691C4.62679 23.4687 4.62417 23.4684 4.6216 23.468C4.62144 23.4654 4.62129 23.4627 4.62114 23.46C4.60977 23.2516 4.63238 22.9531 4.67705 22.417L5.35756 14.2509Z" stroke="#808080" stroke-width="2"/>
</svg>
