<svg width="28" height="28" viewBox="0 0 28 28" fill="none" xmlns="http://www.w3.org/2000/svg">
<path d="M7.03784 16.7547L7.03783 16.7547C7.03662 16.756 7.03541 16.7572 7.0342 16.7584C7.0244 16.7682 7.01467 16.7779 7.005 16.7875C6.84253 16.9496 6.6987 17.0932 6.59734 17.2722C6.49597 17.4512 6.4469 17.6484 6.39147 17.8711C6.38776 17.886 6.38403 17.901 6.38025 17.9162L5.55005 21.2369C5.54783 21.2458 5.5456 21.2547 5.54337 21.2637C5.50412 21.4203 5.46221 21.5877 5.44847 21.7282C5.43333 21.8829 5.43686 22.144 5.64627 22.3534C5.85568 22.5628 6.11674 22.5663 6.27147 22.5512C6.41201 22.5375 6.57935 22.4956 6.73603 22.4563C6.74497 22.4541 6.75387 22.4518 6.76273 22.4496L10.0835 21.6194C10.0986 21.6156 10.1136 21.6119 10.1285 21.6082C10.3513 21.5528 10.5484 21.5037 10.7275 21.4023C10.9065 21.301 11.05 21.1571 11.2122 20.9947C11.223 20.9838 11.2339 20.9729 11.2449 20.9618L19.939 12.2678L19.9623 12.2445C20.2757 11.9311 20.5458 11.6611 20.733 11.4157C20.9336 11.1528 21.0855 10.8604 21.0855 10.5C21.0855 10.1396 20.9336 9.84719 20.733 9.58427C20.5458 9.33895 20.2757 9.06892 19.9623 8.75553L19.939 8.73223L19.2674 8.06066L18.9139 8.41421L19.2674 8.06066L19.2442 8.03737C18.9308 7.72394 18.6607 7.45388 18.4154 7.2667C18.1525 7.0661 17.8601 6.91421 17.4997 6.91421C17.1393 6.91421 16.8469 7.0661 16.5839 7.2667C16.3386 7.45388 16.0686 7.72395 15.7552 8.03738L15.7319 8.06066L7.03784 16.7547Z" stroke="black" stroke-opacity="0.65"/>
</svg>
