<svg width="20" height="20" viewBox="0 0 20 20" fill="none" xmlns="http://www.w3.org/2000/svg">
<path d="M3.70954 11.5902L9.50339 17.0329C9.64854 17.1692 9.72111 17.2374 9.80003 17.272C9.92791 17.328 10.0734 17.328 10.2013 17.272C10.2802 17.2374 10.3528 17.1692 10.4979 17.0329L16.2918 11.5902C17.9219 10.0588 18.1199 7.53884 16.7488 5.77173L16.491 5.43945C14.8509 3.32549 11.5587 3.68001 10.4062 6.09471C10.2434 6.4358 9.75789 6.4358 9.59509 6.09471C8.44263 3.68001 5.15042 3.32549 3.51027 5.43946L3.25247 5.77173C1.88144 7.53884 2.0794 10.0588 3.70954 11.5902Z" stroke="black" stroke-width="1.5"/>
</svg>
