<svg width="27" height="27" viewBox="0 0 27 27" fill="none" xmlns="http://www.w3.org/2000/svg">
<path d="M13.5 17.4509L8.08805 12.3669C7.57909 11.8888 7.51729 11.102 7.94535 10.5503L8.29337 10.1017C8.3523 10.0258 8.39816 10.0013 8.42994 9.98843C8.47279 9.97103 8.53548 9.95899 8.61032 9.96705C8.68517 9.97511 8.74386 10.0002 8.78202 10.0263C8.81033 10.0457 8.84993 10.0794 8.89133 10.1661C10.7413 14.0422 16.2587 14.0422 18.1087 10.1661C18.1501 10.0794 18.1897 10.0457 18.218 10.0263C18.2561 10.0002 18.3148 9.97511 18.3897 9.96705C18.4645 9.95899 18.5272 9.97103 18.5701 9.98843C18.6018 10.0013 18.6477 10.0258 18.7066 10.1017L19.0547 10.5503C19.4827 11.102 19.4209 11.8888 18.9119 12.3669L13.5 17.4509Z" stroke="black" stroke-opacity="0.85" stroke-width="9"/>
</svg>
