<svg width="28" height="28" viewBox="0 0 28 28" fill="none" xmlns="http://www.w3.org/2000/svg">
<path d="M17.6673 9.33332C17.6673 11.3584 16.0257 13 14.0007 13C11.9756 13 10.334 11.3584 10.334 9.33332C10.334 7.30828 11.9756 5.66666 14.0007 5.66666C16.0257 5.66666 17.6673 7.30828 17.6673 9.33332Z" stroke="black" stroke-opacity="0.5" stroke-width="2" stroke-linecap="round"/>
<path d="M5.84214 19.159C6.60314 16.8509 8.99806 15.75 11.4283 15.75H16.5717C19.0019 15.75 21.3969 16.8509 22.1579 19.159C22.4109 19.9264 22.6159 20.799 22.7037 21.7507C22.7545 22.3006 22.3023 22.75 21.75 22.75H6.25C5.69772 22.75 5.2455 22.3006 5.29626 21.7507C5.38411 20.799 5.5891 19.9264 5.84214 19.159Z" stroke="black" stroke-opacity="0.5" stroke-width="2" stroke-linecap="round"/>
</svg>
